G04 Layer_Color=16711935*
%FSLAX42Y42*%
%MOMM*%
G71*
G01*
G75*
%ADD32C,0.25*%
%ADD76C,1.50*%
%ADD77R,1.40X1.40*%
%ADD78C,1.70*%
%ADD79R,1.70X1.70*%
%ADD80R,1.73X1.73*%
%ADD81C,1.73*%
%ADD82R,1.73X1.73*%
%ADD83C,3.25*%
%ADD84C,0.91*%
D32*
X3000Y3500D02*
Y7500D01*
X7603D01*
Y3500D02*
Y7500D01*
X3000Y3500D02*
X7603D01*
D76*
X3460Y6374D02*
D03*
Y6174D02*
D03*
Y5974D02*
D03*
D77*
Y6574D02*
D03*
D78*
X6985Y6287D02*
D03*
Y4445D02*
D03*
D79*
Y6033D02*
D03*
Y4699D02*
D03*
D80*
X6414Y6858D02*
D03*
D81*
Y6604D02*
D03*
X6436Y4435D02*
D03*
D82*
X6182D02*
D03*
D83*
X3302Y7175D02*
D03*
Y3810D02*
D03*
X7303D02*
D03*
Y7175D02*
D03*
D84*
X3210Y4930D02*
D03*
X4305Y7099D02*
D03*
X5855Y5977D02*
D03*
X4803Y4702D02*
D03*
X5489Y5761D02*
D03*
X4691Y6660D02*
D03*
X5385Y6805D02*
D03*
X4321Y6861D02*
D03*
X4562Y6137D02*
D03*
X4290Y5659D02*
D03*
X4762Y3950D02*
D03*
X6185Y3797D02*
D03*
X5410Y3835D02*
D03*
X4762Y3670D02*
D03*
X5598Y3962D02*
D03*
X5591Y3683D02*
D03*
X4097Y5969D02*
D03*
X4526Y6454D02*
D03*
X4618Y6368D02*
D03*
Y6454D02*
D03*
X4526Y6368D02*
D03*
M02*
