G04 Layer_Color=8388736*
%FSLAX42Y42*%
%MOMM*%
G71*
G01*
G75*
%ADD32C,0.25*%
%ADD54R,1.22X1.60*%
%ADD55R,1.60X1.22*%
G04:AMPARAMS|DCode=56|XSize=1.2mm|YSize=0.85mm|CornerRadius=0.33mm|HoleSize=0mm|Usage=FLASHONLY|Rotation=180.000|XOffset=0mm|YOffset=0mm|HoleType=Round|Shape=RoundedRectangle|*
%AMROUNDEDRECTD56*
21,1,1.20,0.20,0,0,180.0*
21,1,0.55,0.85,0,0,180.0*
1,1,0.66,-0.27,0.10*
1,1,0.66,0.27,0.10*
1,1,0.66,0.27,-0.10*
1,1,0.66,-0.27,-0.10*
%
%ADD56ROUNDEDRECTD56*%
%ADD57R,1.20X0.85*%
%ADD58R,1.90X1.90*%
%ADD59O,1.00X0.45*%
%ADD60O,0.45X1.00*%
%ADD61O,1.73X2.36*%
%ADD62R,1.60X2.36*%
G04:AMPARAMS|DCode=63|XSize=0.6mm|YSize=1.1mm|CornerRadius=0.2mm|HoleSize=0mm|Usage=FLASHONLY|Rotation=180.000|XOffset=0mm|YOffset=0mm|HoleType=Round|Shape=RoundedRectangle|*
%AMROUNDEDRECTD63*
21,1,0.60,0.70,0,0,180.0*
21,1,0.20,1.10,0,0,180.0*
1,1,0.40,-0.10,0.35*
1,1,0.40,0.10,0.35*
1,1,0.40,0.10,-0.35*
1,1,0.40,-0.10,-0.35*
%
%ADD63ROUNDEDRECTD63*%
%ADD64R,0.60X1.10*%
%ADD65R,1.50X3.20*%
G04:AMPARAMS|DCode=66|XSize=0.6mm|YSize=0.9mm|CornerRadius=0.2mm|HoleSize=0mm|Usage=FLASHONLY|Rotation=270.000|XOffset=0mm|YOffset=0mm|HoleType=Round|Shape=RoundedRectangle|*
%AMROUNDEDRECTD66*
21,1,0.60,0.50,0,0,270.0*
21,1,0.20,0.90,0,0,270.0*
1,1,0.40,-0.25,-0.10*
1,1,0.40,-0.25,0.10*
1,1,0.40,0.25,0.10*
1,1,0.40,0.25,-0.10*
%
%ADD66ROUNDEDRECTD66*%
%ADD67R,2.00X2.49*%
%ADD68O,1.00X0.54*%
%ADD69R,0.40X1.55*%
G04:AMPARAMS|DCode=70|XSize=0.4mm|YSize=1.55mm|CornerRadius=0mm|HoleSize=0mm|Usage=FLASHONLY|Rotation=0.000|XOffset=0mm|YOffset=0mm|HoleType=Round|Shape=Octagon|*
%AMOCTAGOND70*
4,1,8,-0.10,0.78,0.10,0.78,0.20,0.68,0.20,-0.68,0.10,-0.78,-0.10,-0.78,-0.20,-0.68,-0.20,0.68,-0.10,0.78,0.0*
%
%ADD70OCTAGOND70*%

%ADD71R,1.45X3.38*%
G04:AMPARAMS|DCode=72|XSize=1.2mm|YSize=0.85mm|CornerRadius=0.33mm|HoleSize=0mm|Usage=FLASHONLY|Rotation=270.000|XOffset=0mm|YOffset=0mm|HoleType=Round|Shape=RoundedRectangle|*
%AMROUNDEDRECTD72*
21,1,1.20,0.20,0,0,270.0*
21,1,0.55,0.85,0,0,270.0*
1,1,0.66,-0.10,-0.27*
1,1,0.66,-0.10,0.27*
1,1,0.66,0.10,0.27*
1,1,0.66,0.10,-0.27*
%
%ADD72ROUNDEDRECTD72*%
%ADD73R,0.85X1.20*%
%ADD74R,3.20X1.50*%
G04:AMPARAMS|DCode=75|XSize=0.6mm|YSize=0.9mm|CornerRadius=0.2mm|HoleSize=0mm|Usage=FLASHONLY|Rotation=180.000|XOffset=0mm|YOffset=0mm|HoleType=Round|Shape=RoundedRectangle|*
%AMROUNDEDRECTD75*
21,1,0.60,0.50,0,0,180.0*
21,1,0.20,0.90,0,0,180.0*
1,1,0.40,-0.10,0.25*
1,1,0.40,0.10,0.25*
1,1,0.40,0.10,-0.25*
1,1,0.40,-0.10,-0.25*
%
%ADD75ROUNDEDRECTD75*%
%ADD76C,1.50*%
%ADD77R,1.40X1.40*%
%ADD78C,1.70*%
%ADD79R,1.70X1.70*%
%ADD80R,1.73X1.73*%
%ADD81C,1.73*%
%ADD82R,1.73X1.73*%
%ADD83C,3.25*%
%ADD84C,0.91*%
D32*
X3000Y3500D02*
Y7500D01*
X7603D01*
Y3500D02*
Y7500D01*
X3000Y3500D02*
X7603D01*
D54*
X3460Y5310D02*
D03*
X3651D02*
D03*
X3937Y6985D02*
D03*
X4128D02*
D03*
X4230Y5310D02*
D03*
X4040D02*
D03*
X4470Y5969D02*
D03*
X4280D02*
D03*
X4890D02*
D03*
X4699D02*
D03*
X6287Y5906D02*
D03*
X6096D02*
D03*
Y5588D02*
D03*
X6287D02*
D03*
X5334D02*
D03*
X5144D02*
D03*
X3874Y4001D02*
D03*
X4064D02*
D03*
Y3683D02*
D03*
X3874D02*
D03*
X4381D02*
D03*
X4572D02*
D03*
X5144Y3947D02*
D03*
X4953D02*
D03*
Y3683D02*
D03*
X5144D02*
D03*
X5740Y3947D02*
D03*
X5931D02*
D03*
X5740Y3683D02*
D03*
X5931D02*
D03*
X5347Y6502D02*
D03*
X5156D02*
D03*
X5159Y6238D02*
D03*
X5349D02*
D03*
X5156Y5969D02*
D03*
X5347D02*
D03*
D55*
X4150Y6591D02*
D03*
Y6401D02*
D03*
X3886Y6591D02*
D03*
Y6401D02*
D03*
X3874Y4445D02*
D03*
Y4254D02*
D03*
X4801Y5080D02*
D03*
Y4890D02*
D03*
X4138Y4445D02*
D03*
Y4254D02*
D03*
X4508Y6858D02*
D03*
Y7049D02*
D03*
X6487Y3879D02*
D03*
Y3688D02*
D03*
D56*
X4254Y7239D02*
D03*
X4762Y5588D02*
D03*
D57*
X3899Y7239D02*
D03*
X4407Y5588D02*
D03*
D58*
X4572Y6414D02*
D03*
D59*
X4427Y6338D02*
D03*
Y6388D02*
D03*
Y6439D02*
D03*
Y6489D02*
D03*
X4717D02*
D03*
Y6439D02*
D03*
Y6388D02*
D03*
Y6338D02*
D03*
D60*
X4497Y6558D02*
D03*
X4547D02*
D03*
X4597D02*
D03*
X4647D02*
D03*
Y6269D02*
D03*
X4597D02*
D03*
X4547D02*
D03*
X4497D02*
D03*
D61*
X3765Y4930D02*
D03*
D62*
X3384D02*
D03*
D63*
X3874Y5842D02*
D03*
X3874Y6062D02*
D03*
X3938D02*
D03*
Y5842D02*
D03*
X4003D02*
D03*
D64*
X4003Y6062D02*
D03*
D65*
X5148Y7112D02*
D03*
X4826D02*
D03*
D66*
X5608Y7247D02*
D03*
Y7182D02*
D03*
Y7117D02*
D03*
X5428D02*
D03*
Y7182D02*
D03*
Y7247D02*
D03*
D67*
X5778Y6668D02*
D03*
X5282Y4991D02*
D03*
D68*
X5883Y6765D02*
D03*
X5884Y6700D02*
D03*
X5883Y6635D02*
D03*
Y6570D02*
D03*
X5583Y6570D02*
D03*
Y6635D02*
D03*
Y6700D02*
D03*
Y6765D02*
D03*
X5387Y5089D02*
D03*
X5387Y5024D02*
D03*
X5387Y4959D02*
D03*
Y4894D02*
D03*
X5087Y4894D02*
D03*
Y4959D02*
D03*
Y5024D02*
D03*
Y5089D02*
D03*
D69*
X4622Y4151D02*
D03*
X4572D02*
D03*
X4672D02*
D03*
X4522D02*
D03*
X4472Y4612D02*
D03*
X4522D02*
D03*
X4672D02*
D03*
X4572D02*
D03*
X4622D02*
D03*
D70*
X4472Y4151D02*
D03*
D71*
X4999Y4331D02*
D03*
X5639D02*
D03*
D72*
X5718Y5878D02*
D03*
D73*
Y5522D02*
D03*
D74*
X5740Y5095D02*
D03*
Y4773D02*
D03*
D75*
X6201Y4951D02*
D03*
X6136D02*
D03*
X6071D02*
D03*
Y5131D02*
D03*
X6136D02*
D03*
X6201D02*
D03*
D76*
X3460Y6374D02*
D03*
Y6174D02*
D03*
Y5974D02*
D03*
D77*
Y6574D02*
D03*
D78*
X6985Y6287D02*
D03*
Y4445D02*
D03*
D79*
Y6033D02*
D03*
Y4699D02*
D03*
D80*
X6414Y6858D02*
D03*
D81*
Y6604D02*
D03*
X6436Y4435D02*
D03*
D82*
X6182D02*
D03*
D83*
X3302Y7175D02*
D03*
Y3810D02*
D03*
X7303D02*
D03*
Y7175D02*
D03*
D84*
X3210Y4930D02*
D03*
X4305Y7099D02*
D03*
X5855Y5977D02*
D03*
X4803Y4702D02*
D03*
X5489Y5761D02*
D03*
X4691Y6660D02*
D03*
X5385Y6805D02*
D03*
X4321Y6861D02*
D03*
X4562Y6137D02*
D03*
X4290Y5659D02*
D03*
X4762Y3950D02*
D03*
X6185Y3797D02*
D03*
X5410Y3835D02*
D03*
X4762Y3670D02*
D03*
X5598Y3962D02*
D03*
X5591Y3683D02*
D03*
X4097Y5969D02*
D03*
X4526Y6454D02*
D03*
X4618Y6368D02*
D03*
Y6454D02*
D03*
X4526Y6368D02*
D03*
M02*
