G04 Layer_Physical_Order=2*
G04 Layer_Color=16711680*
%FSLAX42Y42*%
%MOMM*%
G71*
G01*
G75*
%ADD32C,0.25*%
%ADD33C,0.51*%
%ADD34C,0.30*%
%ADD36C,1.30*%
%ADD37R,1.20X1.20*%
%ADD38C,1.50*%
%ADD39R,1.50X1.50*%
%ADD40R,1.52X1.52*%
%ADD41C,1.52*%
%ADD42R,1.52X1.52*%
%ADD43C,3.05*%
%ADD44C,0.71*%
G36*
X7595Y7493D02*
Y3505D01*
X7582Y3492D01*
X7569Y3505D01*
X3006D01*
X2997Y3514D01*
X3000Y7491D01*
X3009Y7500D01*
X7595Y7493D01*
D02*
G37*
%LPC*%
G36*
X3197Y4990D02*
X3186Y4987D01*
X3166Y4974D01*
X3153Y4954D01*
X3150Y4943D01*
X3197D01*
Y4990D01*
D02*
G37*
G36*
X3223D02*
Y4943D01*
X3270D01*
X3267Y4954D01*
X3254Y4974D01*
X3234Y4987D01*
X3223Y4990D01*
D02*
G37*
G36*
X4562Y6237D02*
X4536Y6233D01*
X4512Y6223D01*
X4491Y6207D01*
X4475Y6187D01*
X4465Y6162D01*
X4462Y6137D01*
X4465Y6111D01*
X4475Y6087D01*
X4482Y6077D01*
Y6053D01*
X4234Y5804D01*
X4221Y5788D01*
X4213Y5769D01*
X4211Y5748D01*
X4211Y5748D01*
Y5718D01*
X4204Y5709D01*
X4194Y5685D01*
X4190Y5659D01*
X4194Y5633D01*
X4204Y5609D01*
X4219Y5588D01*
X4240Y5573D01*
X4264Y5563D01*
X4290Y5559D01*
X4316Y5563D01*
X4340Y5573D01*
X4361Y5588D01*
X4377Y5609D01*
X4387Y5633D01*
X4390Y5659D01*
X4387Y5685D01*
X4377Y5709D01*
X4371Y5717D01*
X4618Y5964D01*
X4618Y5964D01*
X4631Y5980D01*
X4639Y5999D01*
X4641Y6020D01*
X4641Y6020D01*
Y6077D01*
X4648Y6087D01*
X4658Y6111D01*
X4662Y6137D01*
X4658Y6162D01*
X4648Y6187D01*
X4632Y6207D01*
X4612Y6223D01*
X4588Y6233D01*
X4562Y6237D01*
D02*
G37*
G36*
X4816Y4761D02*
Y4714D01*
X4863D01*
X4861Y4725D01*
X4847Y4745D01*
X4827Y4759D01*
X4816Y4761D01*
D02*
G37*
G36*
X3197Y4917D02*
X3150D01*
X3153Y4906D01*
X3166Y4886D01*
X3186Y4873D01*
X3197Y4870D01*
Y4917D01*
D02*
G37*
G36*
X3270D02*
X3223D01*
Y4870D01*
X3234Y4873D01*
X3254Y4886D01*
X3267Y4906D01*
X3270Y4917D01*
D02*
G37*
G36*
X4691Y6760D02*
X4666Y6756D01*
X4641Y6746D01*
X4621Y6731D01*
X4605Y6710D01*
X4595Y6686D01*
X4591Y6660D01*
X4595Y6634D01*
X4605Y6610D01*
X4621Y6589D01*
X4641Y6573D01*
X4666Y6563D01*
X4677Y6562D01*
X5410Y5829D01*
Y5820D01*
X5402Y5811D01*
X5392Y5787D01*
X5389Y5761D01*
X5392Y5735D01*
X5402Y5711D01*
X5418Y5690D01*
X5439Y5674D01*
X5463Y5664D01*
X5489Y5661D01*
X5515Y5664D01*
X5539Y5674D01*
X5560Y5690D01*
X5575Y5711D01*
X5585Y5735D01*
X5589Y5761D01*
X5585Y5787D01*
X5575Y5811D01*
X5568Y5820D01*
Y5862D01*
X5568Y5862D01*
X5567Y5873D01*
X5566Y5883D01*
X5558Y5902D01*
X5545Y5918D01*
X5545Y5918D01*
X4789Y6674D01*
X4788Y6686D01*
X4778Y6710D01*
X4762Y6731D01*
X4741Y6746D01*
X4717Y6756D01*
X4691Y6760D01*
D02*
G37*
G36*
X4157Y5956D02*
X4110D01*
Y5909D01*
X4121Y5912D01*
X4141Y5925D01*
X4154Y5945D01*
X4157Y5956D01*
D02*
G37*
G36*
X5842Y5964D02*
X5795D01*
X5797Y5953D01*
X5811Y5933D01*
X5831Y5919D01*
X5842Y5917D01*
Y5964D01*
D02*
G37*
G36*
X5914D02*
X5867D01*
Y5917D01*
X5878Y5919D01*
X5899Y5933D01*
X5912Y5953D01*
X5914Y5964D01*
D02*
G37*
G36*
X3447Y5961D02*
X3370D01*
X3372Y5950D01*
X3381Y5928D01*
X3396Y5909D01*
X3414Y5895D01*
X3436Y5886D01*
X3447Y5884D01*
Y5961D01*
D02*
G37*
G36*
X3550D02*
X3473D01*
Y5884D01*
X3484Y5886D01*
X3506Y5895D01*
X3524Y5909D01*
X3539Y5928D01*
X3548Y5950D01*
X3550Y5961D01*
D02*
G37*
G36*
X4084Y5956D02*
X4037D01*
X4040Y5945D01*
X4053Y5925D01*
X4073Y5912D01*
X4084Y5909D01*
Y5956D01*
D02*
G37*
G36*
X4790Y4761D02*
X4779Y4759D01*
X4759Y4745D01*
X4746Y4725D01*
X4744Y4714D01*
X4790D01*
Y4761D01*
D02*
G37*
G36*
X6985Y4585D02*
X6949Y4580D01*
X6915Y4566D01*
X6886Y4544D01*
X6864Y4515D01*
X6850Y4481D01*
X6845Y4445D01*
X6850Y4409D01*
X6864Y4375D01*
X6886Y4346D01*
X6915Y4324D01*
X6949Y4310D01*
X6985Y4305D01*
X7021Y4310D01*
X7055Y4324D01*
X7084Y4346D01*
X7106Y4375D01*
X7120Y4409D01*
X7125Y4445D01*
X7120Y4481D01*
X7106Y4515D01*
X7084Y4544D01*
X7055Y4566D01*
X7021Y4580D01*
X6985Y4585D01*
D02*
G37*
G36*
X6170Y4422D02*
X6081D01*
Y4333D01*
X6170D01*
Y4422D01*
D02*
G37*
G36*
X6436Y4576D02*
X6400Y4571D01*
X6366Y4557D01*
X6337Y4535D01*
X6314Y4505D01*
X6300Y4471D01*
X6297Y4444D01*
X6284Y4445D01*
Y4536D01*
X6195D01*
Y4435D01*
Y4333D01*
X6284D01*
Y4425D01*
X6297Y4426D01*
X6300Y4398D01*
X6314Y4364D01*
X6337Y4335D01*
X6366Y4313D01*
X6400Y4299D01*
X6436Y4294D01*
X6473Y4299D01*
X6507Y4313D01*
X6536Y4335D01*
X6558Y4364D01*
X6572Y4398D01*
X6577Y4435D01*
X6572Y4471D01*
X6558Y4505D01*
X6536Y4535D01*
X6507Y4557D01*
X6473Y4571D01*
X6436Y4576D01*
D02*
G37*
G36*
X3302Y4027D02*
X3260Y4023D01*
X3219Y4010D01*
X3181Y3990D01*
X3149Y3963D01*
X3122Y3931D01*
X3102Y3893D01*
X3089Y3852D01*
X3085Y3810D01*
X3089Y3768D01*
X3102Y3727D01*
X3122Y3689D01*
X3149Y3657D01*
X3181Y3630D01*
X3219Y3610D01*
X3260Y3597D01*
X3302Y3593D01*
X3344Y3597D01*
X3385Y3610D01*
X3423Y3630D01*
X3455Y3657D01*
X3482Y3689D01*
X3502Y3727D01*
X3515Y3768D01*
X3519Y3810D01*
X3515Y3852D01*
X3502Y3893D01*
X3482Y3931D01*
X3455Y3963D01*
X3423Y3990D01*
X3385Y4010D01*
X3344Y4023D01*
X3302Y4027D01*
D02*
G37*
G36*
X7303D02*
X7260Y4023D01*
X7219Y4010D01*
X7182Y3990D01*
X7149Y3963D01*
X7122Y3931D01*
X7102Y3893D01*
X7090Y3852D01*
X7086Y3810D01*
X7090Y3768D01*
X7102Y3727D01*
X7122Y3689D01*
X7149Y3657D01*
X7182Y3630D01*
X7219Y3610D01*
X7260Y3597D01*
X7303Y3593D01*
X7345Y3597D01*
X7386Y3610D01*
X7423Y3630D01*
X7456Y3657D01*
X7483Y3689D01*
X7503Y3727D01*
X7515Y3768D01*
X7519Y3810D01*
X7515Y3852D01*
X7503Y3893D01*
X7483Y3931D01*
X7456Y3963D01*
X7423Y3990D01*
X7386Y4010D01*
X7345Y4023D01*
X7303Y4027D01*
D02*
G37*
G36*
X5598Y4062D02*
X5572Y4059D01*
X5556Y4052D01*
X4775D01*
X4752Y4049D01*
X4749Y4048D01*
X4737Y4046D01*
X4713Y4036D01*
X4692Y4020D01*
X4676Y4000D01*
X4666Y3976D01*
X4663Y3950D01*
X4666Y3924D01*
X4676Y3900D01*
X4692Y3879D01*
X4713Y3863D01*
X4737Y3853D01*
X4762Y3850D01*
X4788Y3853D01*
X4812Y3863D01*
X4825Y3873D01*
X5307D01*
X5313Y3864D01*
X5314Y3860D01*
X5310Y3835D01*
X5314Y3810D01*
X5324Y3785D01*
X5333Y3773D01*
X5327Y3760D01*
X4805D01*
X4788Y3767D01*
X4762Y3770D01*
X4737Y3767D01*
X4713Y3757D01*
X4692Y3741D01*
X4676Y3720D01*
X4666Y3696D01*
X4663Y3670D01*
X4666Y3644D01*
X4676Y3620D01*
X4692Y3600D01*
X4713Y3584D01*
X4737Y3574D01*
X4762Y3570D01*
X4788Y3574D01*
X4805Y3581D01*
X5578D01*
X5601Y3584D01*
X5604Y3585D01*
X5616Y3586D01*
X5640Y3596D01*
X5661Y3612D01*
X5677Y3633D01*
X5687Y3657D01*
X5690Y3683D01*
X5687Y3709D01*
X5677Y3733D01*
X5676Y3734D01*
X5682Y3746D01*
X6100D01*
X6114Y3727D01*
X6135Y3711D01*
X6159Y3701D01*
X6185Y3697D01*
X6211Y3701D01*
X6235Y3711D01*
X6256Y3727D01*
X6271Y3747D01*
X6281Y3771D01*
X6285Y3797D01*
X6281Y3823D01*
X6271Y3847D01*
X6256Y3868D01*
X6235Y3884D01*
X6218Y3891D01*
X6210Y3899D01*
X6192Y3913D01*
X6170Y3922D01*
X6147Y3925D01*
X5701D01*
X5696Y3934D01*
X5695Y3938D01*
X5698Y3962D01*
X5695Y3988D01*
X5685Y4012D01*
X5669Y4033D01*
X5648Y4049D01*
X5624Y4059D01*
X5598Y4062D01*
D02*
G37*
G36*
X6170Y4536D02*
X6081D01*
Y4448D01*
X6170D01*
Y4536D01*
D02*
G37*
G36*
X4863Y4689D02*
X4816D01*
Y4642D01*
X4827Y4644D01*
X4847Y4658D01*
X4861Y4678D01*
X4863Y4689D01*
D02*
G37*
G36*
X6972Y4799D02*
X6885D01*
Y4712D01*
X6972D01*
Y4799D01*
D02*
G37*
G36*
X7085D02*
X6998D01*
Y4712D01*
X7085D01*
Y4799D01*
D02*
G37*
G36*
X6972Y4686D02*
X6885D01*
Y4599D01*
X6972D01*
Y4686D01*
D02*
G37*
G36*
X7085D02*
X6998D01*
Y4599D01*
X7085D01*
Y4686D01*
D02*
G37*
G36*
X4790Y4689D02*
X4744D01*
X4746Y4678D01*
X4759Y4658D01*
X4779Y4644D01*
X4790Y4642D01*
Y4689D01*
D02*
G37*
G36*
X5372Y6792D02*
X5325D01*
X5327Y6781D01*
X5341Y6761D01*
X5361Y6747D01*
X5372Y6745D01*
Y6792D01*
D02*
G37*
G36*
X5444D02*
X5397D01*
Y6745D01*
X5409Y6747D01*
X5429Y6761D01*
X5442Y6781D01*
X5444Y6792D01*
D02*
G37*
G36*
X5372Y6864D02*
X5361Y6862D01*
X5341Y6849D01*
X5327Y6828D01*
X5325Y6817D01*
X5372D01*
Y6864D01*
D02*
G37*
G36*
X6553Y6998D02*
X6274D01*
Y6718D01*
X6406D01*
X6407Y6706D01*
X6387Y6703D01*
X6362Y6693D01*
X6341Y6676D01*
X6325Y6655D01*
X6315Y6631D01*
X6313Y6617D01*
X6414D01*
X6514D01*
X6512Y6631D01*
X6502Y6655D01*
X6486Y6676D01*
X6465Y6693D01*
X6440Y6703D01*
X6420Y6706D01*
X6421Y6718D01*
X6553D01*
Y6998D01*
D02*
G37*
G36*
X4605Y6514D02*
X4594Y6512D01*
X4574Y6498D01*
X4570D01*
X4550Y6512D01*
X4539Y6514D01*
Y6454D01*
X4526D01*
Y6441D01*
X4467D01*
X4469Y6430D01*
X4482Y6411D01*
X4469Y6392D01*
X4467Y6380D01*
X4526D01*
Y6368D01*
X4539D01*
Y6308D01*
X4550Y6310D01*
X4570Y6324D01*
X4574D01*
X4594Y6310D01*
X4605Y6308D01*
Y6368D01*
X4618D01*
Y6380D01*
X4677D01*
X4675Y6392D01*
X4662Y6411D01*
X4675Y6430D01*
X4677Y6441D01*
X4618D01*
Y6454D01*
X4605D01*
Y6514D01*
D02*
G37*
G36*
X6401Y6591D02*
X6313D01*
X6315Y6577D01*
X6325Y6553D01*
X6341Y6532D01*
X6362Y6515D01*
X6387Y6505D01*
X6401Y6503D01*
Y6591D01*
D02*
G37*
G36*
X6514D02*
X6426D01*
Y6503D01*
X6440Y6505D01*
X6465Y6515D01*
X6486Y6532D01*
X6502Y6553D01*
X6512Y6577D01*
X6514Y6591D01*
D02*
G37*
G36*
X4365Y7087D02*
X4318D01*
Y7040D01*
X4329Y7042D01*
X4349Y7055D01*
X4363Y7076D01*
X4365Y7087D01*
D02*
G37*
G36*
X4293Y7159D02*
X4282Y7157D01*
X4261Y7143D01*
X4248Y7123D01*
X4246Y7112D01*
X4293D01*
Y7159D01*
D02*
G37*
G36*
X4318D02*
Y7112D01*
X4365D01*
X4363Y7123D01*
X4349Y7143D01*
X4329Y7157D01*
X4318Y7159D01*
D02*
G37*
G36*
X4293Y7087D02*
X4246D01*
X4248Y7076D01*
X4261Y7055D01*
X4282Y7042D01*
X4293Y7040D01*
Y7087D01*
D02*
G37*
G36*
X5397Y6864D02*
Y6817D01*
X5444D01*
X5442Y6828D01*
X5429Y6849D01*
X5409Y6862D01*
X5397Y6864D01*
D02*
G37*
G36*
X3302Y7392D02*
X3260Y7388D01*
X3219Y7376D01*
X3181Y7356D01*
X3149Y7329D01*
X3122Y7296D01*
X3102Y7259D01*
X3089Y7218D01*
X3085Y7175D01*
X3089Y7133D01*
X3102Y7092D01*
X3122Y7055D01*
X3149Y7022D01*
X3181Y6995D01*
X3219Y6975D01*
X3260Y6963D01*
X3302Y6959D01*
X3344Y6963D01*
X3385Y6975D01*
X3423Y6995D01*
X3455Y7022D01*
X3482Y7055D01*
X3502Y7092D01*
X3515Y7133D01*
X3519Y7175D01*
X3515Y7218D01*
X3502Y7259D01*
X3482Y7296D01*
X3455Y7329D01*
X3423Y7356D01*
X3385Y7376D01*
X3344Y7388D01*
X3302Y7392D01*
D02*
G37*
G36*
X7303D02*
X7260Y7388D01*
X7219Y7376D01*
X7182Y7356D01*
X7149Y7329D01*
X7122Y7296D01*
X7102Y7259D01*
X7090Y7218D01*
X7086Y7175D01*
X7090Y7133D01*
X7102Y7092D01*
X7122Y7055D01*
X7149Y7022D01*
X7182Y6995D01*
X7219Y6975D01*
X7260Y6963D01*
X7303Y6959D01*
X7345Y6963D01*
X7386Y6975D01*
X7423Y6995D01*
X7456Y7022D01*
X7483Y7055D01*
X7503Y7092D01*
X7515Y7133D01*
X7519Y7175D01*
X7515Y7218D01*
X7503Y7259D01*
X7483Y7296D01*
X7456Y7329D01*
X7423Y7356D01*
X7386Y7376D01*
X7345Y7388D01*
X7303Y7392D01*
D02*
G37*
G36*
X5842Y6036D02*
X5831Y6034D01*
X5811Y6021D01*
X5797Y6000D01*
X5795Y5989D01*
X5842D01*
Y6036D01*
D02*
G37*
G36*
X5867D02*
Y5989D01*
X5914D01*
X5912Y6000D01*
X5899Y6021D01*
X5878Y6034D01*
X5867Y6036D01*
D02*
G37*
G36*
X6972Y6133D02*
X6885D01*
Y6045D01*
X6972D01*
Y6133D01*
D02*
G37*
G36*
X4110Y6029D02*
Y5982D01*
X4157D01*
X4154Y5993D01*
X4141Y6013D01*
X4121Y6026D01*
X4110Y6029D01*
D02*
G37*
G36*
X6972Y6020D02*
X6885D01*
Y5932D01*
X6972D01*
Y6020D01*
D02*
G37*
G36*
X7085D02*
X6998D01*
Y5932D01*
X7085D01*
Y6020D01*
D02*
G37*
G36*
X4084Y6029D02*
X4073Y6026D01*
X4053Y6013D01*
X4040Y5993D01*
X4037Y5982D01*
X4084D01*
Y6029D01*
D02*
G37*
G36*
X4677Y6355D02*
X4630D01*
Y6308D01*
X4642Y6310D01*
X4662Y6324D01*
X4675Y6344D01*
X4677Y6355D01*
D02*
G37*
G36*
X4514Y6514D02*
X4502Y6512D01*
X4482Y6498D01*
X4469Y6478D01*
X4467Y6467D01*
X4514D01*
Y6514D01*
D02*
G37*
G36*
X4630D02*
Y6467D01*
X4677D01*
X4675Y6478D01*
X4662Y6498D01*
X4642Y6512D01*
X4630Y6514D01*
D02*
G37*
G36*
X4514Y6355D02*
X4467D01*
X4469Y6344D01*
X4482Y6324D01*
X4502Y6310D01*
X4514Y6308D01*
Y6355D01*
D02*
G37*
G36*
X7085Y6133D02*
X6998D01*
Y6045D01*
X7085D01*
Y6133D01*
D02*
G37*
G36*
X6985Y6426D02*
X6949Y6421D01*
X6915Y6407D01*
X6886Y6385D01*
X6864Y6356D01*
X6850Y6323D01*
X6845Y6287D01*
X6850Y6250D01*
X6864Y6217D01*
X6886Y6188D01*
X6915Y6166D01*
X6949Y6152D01*
X6985Y6147D01*
X7021Y6152D01*
X7055Y6166D01*
X7084Y6188D01*
X7106Y6217D01*
X7120Y6250D01*
X7125Y6287D01*
X7120Y6323D01*
X7106Y6356D01*
X7084Y6385D01*
X7055Y6407D01*
X7021Y6421D01*
X6985Y6426D01*
D02*
G37*
G36*
X4321Y6960D02*
X4295Y6957D01*
X4271Y6947D01*
X4250Y6931D01*
X4234Y6910D01*
X4224Y6886D01*
X4221Y6861D01*
X4224Y6835D01*
X4231Y6818D01*
Y6697D01*
X3804Y6270D01*
X3556D01*
X3552Y6281D01*
X3552Y6282D01*
X3572Y6309D01*
X3585Y6340D01*
X3590Y6374D01*
X3585Y6407D01*
X3573Y6438D01*
X3576Y6447D01*
X3578Y6450D01*
X3583D01*
Y6697D01*
X3337D01*
Y6450D01*
X3342D01*
X3344Y6447D01*
X3347Y6438D01*
X3335Y6407D01*
X3330Y6374D01*
X3335Y6340D01*
X3348Y6309D01*
X3368Y6282D01*
X3371Y6280D01*
Y6267D01*
X3368Y6265D01*
X3348Y6239D01*
X3335Y6207D01*
X3330Y6174D01*
X3335Y6140D01*
X3348Y6109D01*
X3368Y6082D01*
X3395Y6062D01*
X3402Y6059D01*
X3403Y6044D01*
X3396Y6038D01*
X3381Y6019D01*
X3372Y5997D01*
X3370Y5986D01*
X3460D01*
X3550D01*
X3548Y5997D01*
X3539Y6019D01*
X3524Y6038D01*
X3517Y6044D01*
X3518Y6059D01*
X3525Y6062D01*
X3552Y6082D01*
X3558Y6090D01*
X3841D01*
X3864Y6093D01*
X3885Y6102D01*
X3904Y6117D01*
X4384Y6596D01*
X4398Y6615D01*
X4407Y6637D01*
X4410Y6660D01*
Y6818D01*
X4417Y6835D01*
X4420Y6861D01*
X4417Y6886D01*
X4407Y6910D01*
X4391Y6931D01*
X4370Y6947D01*
X4346Y6957D01*
X4321Y6960D01*
D02*
G37*
%LPD*%
D32*
X3000Y3500D02*
Y7500D01*
X7603D01*
Y3500D02*
Y7500D01*
X3000Y3500D02*
X7603D01*
D33*
X3466Y6180D02*
X3841D01*
X3460Y6174D02*
X3466Y6180D01*
X3841D02*
X4321Y6660D01*
X6147Y3835D02*
X6185Y3797D01*
X5410Y3835D02*
X6147D01*
X4775Y3962D02*
X5598D01*
X5578Y3670D02*
X5591Y3683D01*
X4762Y3670D02*
X5578D01*
X4321Y6660D02*
Y6861D01*
X4762Y3950D02*
X4775Y3962D01*
D34*
X4290Y5659D02*
Y5748D01*
X4562Y6020D01*
Y6137D01*
X4691Y6660D02*
X5489Y5862D01*
Y5761D02*
Y5862D01*
D36*
X3460Y6374D02*
D03*
Y6174D02*
D03*
Y5974D02*
D03*
D37*
Y6574D02*
D03*
D38*
X6985Y6287D02*
D03*
Y4445D02*
D03*
D39*
Y6033D02*
D03*
Y4699D02*
D03*
D40*
X6414Y6858D02*
D03*
D41*
Y6604D02*
D03*
X6436Y4435D02*
D03*
D42*
X6182D02*
D03*
D43*
X3302Y7175D02*
D03*
Y3810D02*
D03*
X7303D02*
D03*
Y7175D02*
D03*
D44*
X3210Y4930D02*
D03*
X4305Y7099D02*
D03*
X5855Y5977D02*
D03*
X4803Y4702D02*
D03*
X5489Y5761D02*
D03*
X4691Y6660D02*
D03*
X5385Y6805D02*
D03*
X4321Y6861D02*
D03*
X4562Y6137D02*
D03*
X4290Y5659D02*
D03*
X4762Y3950D02*
D03*
X6185Y3797D02*
D03*
X5410Y3835D02*
D03*
X4762Y3670D02*
D03*
X5598Y3962D02*
D03*
X5591Y3683D02*
D03*
X4097Y5969D02*
D03*
X4526Y6454D02*
D03*
X4618Y6368D02*
D03*
Y6454D02*
D03*
X4526Y6368D02*
D03*
M02*
