G04 Layer_Physical_Order=1*
G04 Layer_Color=255*
%FSLAX42Y42*%
%MOMM*%
G71*
G01*
G75*
%ADD10R,1.02X1.40*%
%ADD11R,1.40X1.02*%
G04:AMPARAMS|DCode=12|XSize=1mm|YSize=0.65mm|CornerRadius=0.23mm|HoleSize=0mm|Usage=FLASHONLY|Rotation=180.000|XOffset=0mm|YOffset=0mm|HoleType=Round|Shape=RoundedRectangle|*
%AMROUNDEDRECTD12*
21,1,1.00,0.20,0,0,180.0*
21,1,0.55,0.65,0,0,180.0*
1,1,0.46,-0.27,0.10*
1,1,0.46,0.27,0.10*
1,1,0.46,0.27,-0.10*
1,1,0.46,-0.27,-0.10*
%
%ADD12ROUNDEDRECTD12*%
%ADD13R,1.00X0.65*%
%ADD14R,1.70X1.70*%
%ADD15O,0.80X0.25*%
%ADD16O,0.25X0.80*%
%ADD17O,1.52X2.16*%
%ADD18R,1.40X2.16*%
G04:AMPARAMS|DCode=19|XSize=0.4mm|YSize=0.9mm|CornerRadius=0.1mm|HoleSize=0mm|Usage=FLASHONLY|Rotation=180.000|XOffset=0mm|YOffset=0mm|HoleType=Round|Shape=RoundedRectangle|*
%AMROUNDEDRECTD19*
21,1,0.40,0.70,0,0,180.0*
21,1,0.20,0.90,0,0,180.0*
1,1,0.20,-0.10,0.35*
1,1,0.20,0.10,0.35*
1,1,0.20,0.10,-0.35*
1,1,0.20,-0.10,-0.35*
%
%ADD19ROUNDEDRECTD19*%
%ADD20R,0.40X0.90*%
%ADD21R,1.30X3.00*%
G04:AMPARAMS|DCode=22|XSize=0.4mm|YSize=0.7mm|CornerRadius=0.1mm|HoleSize=0mm|Usage=FLASHONLY|Rotation=270.000|XOffset=0mm|YOffset=0mm|HoleType=Round|Shape=RoundedRectangle|*
%AMROUNDEDRECTD22*
21,1,0.40,0.50,0,0,270.0*
21,1,0.20,0.70,0,0,270.0*
1,1,0.20,-0.25,-0.10*
1,1,0.20,-0.25,0.10*
1,1,0.20,0.25,0.10*
1,1,0.20,0.25,-0.10*
%
%ADD22ROUNDEDRECTD22*%
%ADD23R,1.80X2.29*%
%ADD24O,0.80X0.34*%
%ADD25R,0.25X1.40*%
G04:AMPARAMS|DCode=26|XSize=0.25mm|YSize=1.4mm|CornerRadius=0mm|HoleSize=0mm|Usage=FLASHONLY|Rotation=0.000|XOffset=0mm|YOffset=0mm|HoleType=Round|Shape=Octagon|*
%AMOCTAGOND26*
4,1,8,-0.06,0.70,0.06,0.70,0.13,0.64,0.13,-0.64,0.06,-0.70,-0.06,-0.70,-0.13,-0.64,-0.13,0.64,-0.06,0.70,0.0*
%
%ADD26OCTAGOND26*%

%ADD27R,1.24X3.17*%
G04:AMPARAMS|DCode=28|XSize=1mm|YSize=0.65mm|CornerRadius=0.23mm|HoleSize=0mm|Usage=FLASHONLY|Rotation=270.000|XOffset=0mm|YOffset=0mm|HoleType=Round|Shape=RoundedRectangle|*
%AMROUNDEDRECTD28*
21,1,1.00,0.20,0,0,270.0*
21,1,0.55,0.65,0,0,270.0*
1,1,0.46,-0.10,-0.27*
1,1,0.46,-0.10,0.27*
1,1,0.46,0.10,0.27*
1,1,0.46,0.10,-0.27*
%
%ADD28ROUNDEDRECTD28*%
%ADD29R,0.65X1.00*%
%ADD30R,3.00X1.30*%
G04:AMPARAMS|DCode=31|XSize=0.4mm|YSize=0.7mm|CornerRadius=0.1mm|HoleSize=0mm|Usage=FLASHONLY|Rotation=180.000|XOffset=0mm|YOffset=0mm|HoleType=Round|Shape=RoundedRectangle|*
%AMROUNDEDRECTD31*
21,1,0.40,0.50,0,0,180.0*
21,1,0.20,0.70,0,0,180.0*
1,1,0.20,-0.10,0.25*
1,1,0.20,0.10,0.25*
1,1,0.20,0.10,-0.25*
1,1,0.20,-0.10,-0.25*
%
%ADD31ROUNDEDRECTD31*%
%ADD32C,0.25*%
%ADD33C,0.51*%
%ADD34C,0.30*%
%ADD35C,0.38*%
%ADD36C,1.30*%
%ADD37R,1.20X1.20*%
%ADD38C,1.50*%
%ADD39R,1.50X1.50*%
%ADD40R,1.52X1.52*%
%ADD41C,1.52*%
%ADD42R,1.52X1.52*%
%ADD43C,3.05*%
%ADD44C,0.71*%
D10*
X3460Y5310D02*
D03*
X3651D02*
D03*
X3937Y6985D02*
D03*
X4128D02*
D03*
X4230Y5310D02*
D03*
X4040D02*
D03*
X4470Y5969D02*
D03*
X4280D02*
D03*
X4890D02*
D03*
X4699D02*
D03*
X6287Y5906D02*
D03*
X6096D02*
D03*
Y5588D02*
D03*
X6287D02*
D03*
X5334D02*
D03*
X5144D02*
D03*
X3874Y4001D02*
D03*
X4064D02*
D03*
Y3683D02*
D03*
X3874D02*
D03*
X4381D02*
D03*
X4572D02*
D03*
X5144Y3947D02*
D03*
X4953D02*
D03*
Y3683D02*
D03*
X5144D02*
D03*
X5740Y3947D02*
D03*
X5931D02*
D03*
X5740Y3683D02*
D03*
X5931D02*
D03*
X5347Y6502D02*
D03*
X5156D02*
D03*
X5159Y6238D02*
D03*
X5349D02*
D03*
X5156Y5969D02*
D03*
X5347D02*
D03*
D11*
X4150Y6591D02*
D03*
Y6401D02*
D03*
X3886Y6591D02*
D03*
Y6401D02*
D03*
X3874Y4445D02*
D03*
Y4254D02*
D03*
X4801Y5080D02*
D03*
Y4890D02*
D03*
X4138Y4445D02*
D03*
Y4254D02*
D03*
X4508Y6858D02*
D03*
Y7049D02*
D03*
X6487Y3879D02*
D03*
Y3688D02*
D03*
D12*
X4254Y7239D02*
D03*
X4762Y5588D02*
D03*
D13*
X3899Y7239D02*
D03*
X4407Y5588D02*
D03*
D14*
X4572Y6414D02*
D03*
D15*
X4427Y6338D02*
D03*
Y6388D02*
D03*
Y6439D02*
D03*
Y6489D02*
D03*
X4717D02*
D03*
Y6439D02*
D03*
Y6388D02*
D03*
Y6338D02*
D03*
D16*
X4497Y6558D02*
D03*
X4547D02*
D03*
X4597D02*
D03*
X4647D02*
D03*
Y6269D02*
D03*
X4597D02*
D03*
X4547D02*
D03*
X4497D02*
D03*
D17*
X3765Y4930D02*
D03*
D18*
X3384D02*
D03*
D19*
X3874Y5842D02*
D03*
X3874Y6062D02*
D03*
X3938D02*
D03*
Y5842D02*
D03*
X4003D02*
D03*
D20*
X4003Y6062D02*
D03*
D21*
X5148Y7112D02*
D03*
X4826D02*
D03*
D22*
X5608Y7247D02*
D03*
Y7182D02*
D03*
Y7117D02*
D03*
X5428D02*
D03*
Y7182D02*
D03*
Y7247D02*
D03*
D23*
X5778Y6668D02*
D03*
X5282Y4991D02*
D03*
D24*
X5883Y6765D02*
D03*
X5884Y6700D02*
D03*
X5883Y6635D02*
D03*
Y6570D02*
D03*
X5583Y6570D02*
D03*
Y6635D02*
D03*
Y6700D02*
D03*
Y6765D02*
D03*
X5387Y5089D02*
D03*
X5387Y5024D02*
D03*
X5387Y4959D02*
D03*
Y4894D02*
D03*
X5087Y4894D02*
D03*
Y4959D02*
D03*
Y5024D02*
D03*
Y5089D02*
D03*
D25*
X4622Y4151D02*
D03*
X4572D02*
D03*
X4672D02*
D03*
X4522D02*
D03*
X4472Y4612D02*
D03*
X4522D02*
D03*
X4672D02*
D03*
X4572D02*
D03*
X4622D02*
D03*
D26*
X4472Y4151D02*
D03*
D27*
X4999Y4331D02*
D03*
X5639D02*
D03*
D28*
X5718Y5878D02*
D03*
D29*
Y5522D02*
D03*
D30*
X5740Y5095D02*
D03*
Y4773D02*
D03*
D31*
X6201Y4951D02*
D03*
X6136D02*
D03*
X6071D02*
D03*
Y5131D02*
D03*
X6136D02*
D03*
X6201D02*
D03*
D32*
X4597Y6439D02*
X4717D01*
X4547Y6269D02*
Y6388D01*
X4689Y3947D02*
X4953D01*
X4755Y4750D02*
X4798Y4707D01*
X4674Y4750D02*
X4755D01*
X5309Y6739D02*
X5477Y6570D01*
X4628Y6739D02*
X5309D01*
X4547Y6658D02*
X4628Y6739D01*
X4547Y6558D02*
Y6658D01*
X4676Y6657D02*
X4679D01*
X4647Y6628D02*
X4676Y6657D01*
X4647Y6558D02*
Y6628D01*
X4762Y5588D02*
Y5730D01*
X4666Y5827D02*
X4762Y5730D01*
X4318Y5827D02*
X4666D01*
X4280Y5865D02*
X4318Y5827D01*
X4280Y5865D02*
Y5969D01*
X4497Y6846D02*
X4508Y6858D01*
X4497Y6558D02*
Y6846D01*
X5428Y7117D02*
X5496D01*
X5504Y7125D01*
Y7165D01*
X5488Y7182D02*
X5504Y7165D01*
X5428Y7182D02*
X5488D01*
X5477Y6570D02*
X5583D01*
X4890Y5860D02*
Y5969D01*
Y5860D02*
X4971Y5778D01*
X5215D01*
X5253Y5817D01*
Y6218D01*
X5232Y6238D02*
X5253Y6218D01*
X5159Y6238D02*
X5232D01*
X4572Y6144D02*
X4597Y6169D01*
Y6269D01*
X5142Y6489D02*
X5156Y6502D01*
X4717Y6489D02*
X5142D01*
X4572Y6414D02*
X4597Y6439D01*
X5070Y5969D02*
X5156D01*
X5022Y6017D02*
X5070Y5969D01*
X5022Y6017D02*
Y6185D01*
X4930Y6276D02*
X5022Y6185D01*
X4930Y6276D02*
Y6278D01*
X4820Y6388D02*
X4930Y6278D01*
X4717Y6388D02*
X4820D01*
X4497Y6176D02*
Y6269D01*
X4470Y6149D02*
X4497Y6176D01*
X4470Y5969D02*
Y6149D01*
Y5969D02*
X4699D01*
X4547Y6388D02*
X4572Y6414D01*
X4890Y5969D02*
Y6261D01*
X4812Y6338D02*
X4890Y6261D01*
X4717Y6338D02*
X4812D01*
X4699Y5969D02*
Y6104D01*
X4647Y6156D02*
X4699Y6104D01*
X4647Y6156D02*
Y6269D01*
X5486Y4915D02*
Y4978D01*
X5465Y4894D02*
X5486Y4915D01*
X5387Y4894D02*
X5465D01*
X5387Y5024D02*
X5481D01*
X5486D01*
Y4978D02*
Y5024D01*
X5467Y4959D02*
X5486Y4978D01*
X5387Y4959D02*
X5467D01*
X5387Y5089D02*
X5486D01*
Y5029D02*
Y5089D01*
X5481Y5024D02*
X5486Y5029D01*
X4472Y4151D02*
Y4612D01*
X4672D02*
X4674Y4613D01*
Y4750D01*
X4623D02*
X4674D01*
X4623Y4612D02*
Y4750D01*
X4622Y4612D02*
X4623Y4612D01*
X4737Y4331D02*
X4999D01*
X4572Y4496D02*
X4737Y4331D01*
X4572Y4496D02*
Y4612D01*
X4522D02*
Y4801D01*
X4610Y4890D01*
X4801D01*
X5144Y3947D02*
Y4051D01*
Y3683D02*
Y3947D01*
X5105Y4089D02*
X5144Y4051D01*
X4864Y4089D02*
X5105D01*
X4802Y4151D02*
X4864Y4089D01*
X4672Y4151D02*
X4802D01*
X4953Y3683D02*
Y3947D01*
X4622Y4014D02*
X4689Y3947D01*
X4622Y4014D02*
Y4151D01*
X4572Y3683D02*
Y4151D01*
X4064Y4001D02*
X4508D01*
X4522Y4014D01*
Y4151D01*
X4097Y5969D02*
X4280D01*
X3938D02*
X4097D01*
X3000Y3500D02*
Y7500D01*
X7603D01*
Y3500D02*
Y7500D01*
X3000Y3500D02*
X7603D01*
D33*
X5347Y5969D02*
Y6502D01*
X5906Y3683D02*
X5933Y3711D01*
Y4331D01*
X3850Y4449D02*
X4138D01*
X3651Y5310D02*
Y6119D01*
X3596Y6174D02*
X3651Y6119D01*
X3460Y6174D02*
X3596D01*
X3210Y4601D02*
Y4930D01*
Y4601D02*
X3556Y4254D01*
X3210Y4930D02*
X3384D01*
X3320Y5310D02*
X3460D01*
X3220Y5410D02*
X3320Y5310D01*
X3220Y5410D02*
Y6667D01*
X3880Y5310D02*
X4040D01*
X3880Y4930D02*
X4076D01*
X3651Y5310D02*
X3880D01*
X3765Y4930D02*
X3880D01*
Y5310D01*
X4230Y4776D02*
X4534Y5080D01*
X4138Y4684D02*
X4230Y4776D01*
X4076Y4930D02*
X4230Y4776D01*
X3220Y6667D02*
X3363Y6810D01*
X3735Y6985D02*
X3937D01*
X3560Y6810D02*
X3735Y6985D01*
X3363Y6810D02*
X3560D01*
X6452Y3874D02*
Y4420D01*
X4138Y4445D02*
Y4449D01*
Y4684D01*
X4254Y7239D02*
X4333D01*
X4445D01*
X4305Y7104D02*
X4333Y7132D01*
Y7239D01*
X5850Y5972D02*
X5855Y5977D01*
X5812Y5972D02*
X5850D01*
X5718Y5878D02*
X5812Y5972D01*
X5347Y5969D02*
X5626D01*
X5718Y5878D01*
X6078Y4331D02*
X6182Y4435D01*
X4326Y6858D02*
X4508D01*
X4826Y6942D02*
Y7112D01*
X4742Y6858D02*
X4826Y6942D01*
X4508Y6858D02*
X4742D01*
X3937Y6820D02*
Y6985D01*
X3886Y6769D02*
X3937Y6820D01*
X3886Y6591D02*
Y6769D01*
Y6591D02*
X4150D01*
X4445Y7239D02*
X4508Y7175D01*
Y7049D02*
Y7175D01*
X4153Y7239D02*
X4254D01*
X4128Y7214D02*
X4153Y7239D01*
X4128Y6985D02*
Y7214D01*
X3937Y6985D02*
Y7112D01*
X3899Y7150D02*
X3937Y7112D01*
X3899Y7150D02*
Y7239D01*
X5486Y5089D02*
X5734D01*
X4999Y4331D02*
Y4605D01*
X5156Y4762D01*
X5730D01*
X5740Y4773D01*
X4138Y4445D02*
X4458D01*
X4534Y5080D02*
X4801D01*
X5309Y3924D02*
X5397Y3835D01*
X5166Y3924D02*
X5309D01*
X5144Y3947D02*
X5166Y3924D01*
X6185Y3797D02*
X6299Y3683D01*
X6414D01*
X4585Y3670D02*
X4750D01*
X4572Y3683D02*
X4585Y3670D01*
X5639Y4331D02*
X5906D01*
X4064Y3683D02*
X4381D01*
X3874D02*
Y4001D01*
Y4254D01*
X4138D01*
X3556D02*
X3874D01*
X6436Y4435D02*
X6452Y4420D01*
X5933Y4331D02*
X6078D01*
X5598Y3962D02*
X5725D01*
X5740Y3947D01*
X5591Y3683D02*
X5715D01*
X6436Y4435D02*
X6975D01*
X6985Y4445D01*
D34*
X3611Y6401D02*
X3780D01*
X3886D01*
X3780D02*
X3785Y6396D01*
Y5878D02*
Y6396D01*
X3460Y6374D02*
X3584D01*
X3611Y6401D01*
X3460Y6574D02*
X3586D01*
X3663Y6497D01*
X4120D01*
X4288Y5588D02*
Y5662D01*
Y5498D02*
Y5588D01*
X4230Y5440D02*
X4288Y5498D01*
X4230Y5310D02*
Y5440D01*
X5499Y5674D02*
Y5763D01*
X5734Y5089D02*
X5935D01*
X5278Y7056D02*
Y7209D01*
X5316Y7247D01*
X5441Y5616D02*
X5499Y5674D01*
X5441Y5588D02*
Y5616D01*
X6096Y5906D02*
Y6540D01*
X6414Y6858D01*
X6287Y5588D02*
Y5906D01*
X5954Y5588D02*
X6096D01*
X5888Y5522D02*
X5954Y5588D01*
X5718Y5522D02*
X5888D01*
X5507D02*
X5718D01*
X5441Y5588D02*
X5507Y5522D01*
X5334Y5588D02*
X5441D01*
X5385Y6802D02*
X5422Y6765D01*
X5465D01*
X4145Y5763D02*
X4460D01*
X4562Y5662D01*
Y5578D02*
Y5662D01*
Y5578D02*
X4712Y5428D01*
X4836D01*
X4996Y5588D01*
X6090Y7182D02*
X6414Y6858D01*
X5608Y7182D02*
X6090D01*
X5985Y6565D02*
Y6635D01*
X5980Y6570D02*
X5985Y6565D01*
X5987Y6759D02*
Y6835D01*
Y6698D02*
Y6759D01*
X5981Y6765D02*
X5987Y6759D01*
X5883Y6765D02*
X5981D01*
X5987Y6637D02*
Y6698D01*
X5985Y6700D02*
X5987Y6698D01*
X5884Y6700D02*
X5985D01*
X5883Y6635D02*
X5985D01*
X5883Y6570D02*
X5980D01*
X5918Y6904D02*
X5987Y6835D01*
X5316Y7247D02*
X5428D01*
X5493Y6635D02*
X5583D01*
X5464Y6664D02*
X5493Y6635D01*
X5464Y6664D02*
Y6700D01*
X5465Y6765D02*
X5583D01*
X5465Y6705D02*
Y6765D01*
Y6705D02*
X5469Y6700D01*
X5583D01*
X4996Y5588D02*
X5144D01*
X4067Y5842D02*
X4145Y5763D01*
X4003Y5842D02*
X4067D01*
X4288Y5588D02*
X4407D01*
X3938Y5969D02*
Y6062D01*
Y5842D02*
Y5969D01*
X4003Y6062D02*
X4088D01*
X4300Y6274D01*
Y6553D01*
X4262Y6591D02*
X4300Y6553D01*
X4150Y6591D02*
X4262D01*
X4150Y6269D02*
Y6401D01*
X4112Y6231D02*
X4150Y6269D01*
X3929Y6231D02*
X4112D01*
X3874Y6175D02*
X3929Y6231D01*
X3874Y6062D02*
Y6175D01*
X3785Y5878D02*
X3820Y5842D01*
X3874D01*
X4150Y6401D02*
Y6467D01*
X4120Y6497D02*
X4150Y6467D01*
X6436Y4435D02*
Y4994D01*
X6299Y5131D02*
X6436Y4994D01*
X6201Y5131D02*
X6299D01*
X5935Y5089D02*
X5982Y5042D01*
X6121D01*
X6136Y5056D01*
Y5131D01*
X4801Y4890D02*
X4805Y4894D01*
X5087D01*
X4966Y4966D02*
Y5029D01*
Y4966D02*
X4973Y4959D01*
X5087D01*
X4966Y5089D02*
X5087D01*
X4809D02*
X4966D01*
Y5029D02*
Y5089D01*
Y5029D02*
X4971Y5024D01*
X5087D01*
X4801Y5080D02*
X4809Y5089D01*
X6414Y6858D02*
X6668D01*
X6985Y6540D01*
Y6287D02*
Y6540D01*
D35*
X5148Y7112D02*
X5203Y7056D01*
X5278D01*
X5431Y6904D01*
X5918D01*
D36*
X3460Y6374D02*
D03*
Y6174D02*
D03*
Y5974D02*
D03*
D37*
Y6574D02*
D03*
D38*
X6985Y6287D02*
D03*
Y4445D02*
D03*
D39*
Y6033D02*
D03*
Y4699D02*
D03*
D40*
X6414Y6858D02*
D03*
D41*
Y6604D02*
D03*
X6436Y4435D02*
D03*
D42*
X6182D02*
D03*
D43*
X3302Y7175D02*
D03*
Y3810D02*
D03*
X7303D02*
D03*
Y7175D02*
D03*
D44*
X3210Y4930D02*
D03*
X4305Y7099D02*
D03*
X5855Y5977D02*
D03*
X4803Y4702D02*
D03*
X5489Y5761D02*
D03*
X4691Y6660D02*
D03*
X5385Y6805D02*
D03*
X4321Y6861D02*
D03*
X4562Y6137D02*
D03*
X4290Y5659D02*
D03*
X4762Y3950D02*
D03*
X6185Y3797D02*
D03*
X5410Y3835D02*
D03*
X4762Y3670D02*
D03*
X5598Y3962D02*
D03*
X5591Y3683D02*
D03*
X4097Y5969D02*
D03*
X4526Y6454D02*
D03*
X4618Y6368D02*
D03*
Y6454D02*
D03*
X4526Y6368D02*
D03*
M02*
