M48
;Layer_Color=9474304
;FILE_FORMAT=4:2
METRIC,LZ
;TYPE=PLATED
T1F00S00C0.41
T2F00S00C0.90
T3F00S00C0.97
T4F00S00C3.05
%
T01
X004762Y00367
Y00395
X00541Y003835
X005598Y003962
X005591Y003683
X006185Y003797
X004803Y004702
X00429Y005659
X004097Y005969
X004562Y006137
X004526Y006368
Y006454
X004618
Y006368
X004691Y00666
X004321Y006861
X004305Y007099
X005385Y006805
X005489Y005761
X005855Y005977
X00321Y00493
T02
X006985Y004445
Y004699
Y006033
Y006287
X00346Y006374
Y006174
Y005974
Y006574
T03
X006182Y004435
X006436
X006414Y006604
Y006858
T04
X003302Y00381
X007303
Y007175
X003302
M30
